<svg xmlns="http://www.w3.org/2000/svg" aria-hidden="true" style="position:absolute;width:0;height:0;overflow:hidden">
  <defs>
    <symbol id="icon-facebook" viewBox="0 0 32 32">
      <path d="M30.234 0H1.767C.791 0 .001.79.001 1.766v28.469c0 .974.79 1.765 1.766 1.765h15.328V19.608h-4.173v-4.829h4.17v-3.563c0-4.133 2.525-6.384 6.213-6.384 1.766 0 3.283.131 3.726.19v4.32h-2.557c-2.006 0-2.394.955-2.394 2.352v3.085h4.782l-.624 4.829h-4.16V32h8.157c.973 0 1.763-.79 1.763-1.766V1.767A1.763 1.763 0 0 0 30.233.001z"/>
    </symbol>
    <symbol id="icon-pinterest" viewBox="0 0 32 32">
      <path d="M16 0C7.165 0 0 7.163 0 16c0 6.779 4.218 12.568 10.17 14.899-.141-1.266-.267-3.208.056-4.589.291-1.248 1.875-7.952 1.875-7.952s-.478-.96-.478-2.378c0-2.224 1.29-3.885 2.896-3.885 1.363 0 2.022 1.024 2.022 2.253 0 1.373-.872 3.424-1.325 5.328-.378 1.592.8 2.891 2.368 2.891 2.845 0 5.03-2.998 5.03-7.328 0-3.829-2.752-6.509-6.683-6.509-4.552 0-7.224 3.416-7.224 6.944 0 1.374.53 2.85 1.192 3.65a.48.48 0 0 1 .109.465l.001-.003-.445 1.813c-.07.293-.232.357-.536.214-1.998-.93-3.248-3.851-3.248-6.198 0-5.046 3.667-9.683 10.573-9.683 5.55 0 9.864 3.957 9.864 9.242 0 5.515-3.477 9.952-8.304 9.952-1.621 0-3.144-.84-3.666-1.837l-.997 3.805c-.362 1.39-1.336 3.133-1.99 4.194 1.499.464 3.09.714 4.739.714 8.835 0 16-7.163 16-16s-7.165-16-16-16z"/>
    </symbol>
    <symbol id="icon-share" viewBox="0 0 37 32">
      <path d="M36.923 15.988 21.578.035v9.516h-3.262C8.197 9.551 0 17.327 0 26.92v5.044l1.45-1.506c4.926-5.118 11.897-8.032 19.202-8.032h.923v9.519l15.348-15.956z"/>
    </symbol>
    <symbol id="icon-twitter" viewBox="0 0 38 32">
      <path d="M37.647 4.088a15.016 15.016 0 0 1-4.362 1.209l-.074.007a7.777 7.777 0 0 0 3.38-4.218l.016-.055a15.176 15.176 0 0 1-4.804 1.858l-.099.017a7.693 7.693 0 0 0-5.627-2.44h-.011.001c-4.988 0-8.651 4.653-7.526 9.481A21.911 21.911 0 0 1 2.653 1.92l-.031-.039a7.645 7.645 0 0 0-1.045 3.882 7.727 7.727 0 0 0 3.408 6.412l.027.017a7.67 7.67 0 0 1-3.536-.986l.038.02c-.085 3.576 2.481 6.925 6.195 7.671a7.553 7.553 0 0 1-2.029.271 7.72 7.72 0 0 1-1.508-.147l.049.008c1.016 3.093 3.85 5.298 7.208 5.363h.008a15.431 15.431 0 0 1-9.583 3.309c-.653 0-1.297-.04-1.928-.119l.076.008c3.341 2.175 7.428 3.469 11.818 3.469h.023-.001c14.34 0 22.441-12.111 21.954-22.974a15.875 15.875 0 0 0 3.818-3.943l.035-.056z"/>
    </symbol>
  </defs>
</svg>